<?xml version="1.0" encoding="UTF-8"?>
<!DOCTYPE svg PUBLIC "-//W3C//DTD SVG 1.1//EN" "http://www.w3.org/Graphics/SVG/1.1/DTD/svg11.dtd">
<!-- Creator: CorelDRAW X6 -->
<svg xmlns="http://www.w3.org/2000/svg" xml:space="preserve" width="100%" height="100%" version="1.1" style="shape-rendering:geometricPrecision; text-rendering:geometricPrecision; image-rendering:optimizeQuality; fill-rule:evenodd; clip-rule:evenodd"
viewBox="0 0 677333 71437"
 xmlns:xlink="http://www.w3.org/1999/xlink">
 <defs>
  <style type="text/css">
   <![CDATA[
    .fil0 {fill:#2B2A29}
    .fil2 {fill:#F6F6F6}
    .fil1 {fill:#FEFEFE;fill-rule:nonzero}
    .fil3 {fill:#019FDE;fill-rule:nonzero}
    .fil5 {fill:#FF0052;fill-rule:nonzero}
    .fil4 {fill:#FFE000;fill-rule:nonzero}
   ]]>
  </style>
 </defs>
 <g id="Слой_x0020_1">
  <metadata id="CorelCorpID_0Corel-Layer"/>
  <path class="fil1" d="M2736 57417l5164 -3104c3641,6717 7846,10075 12616,10075 2046,0 3965,-479 5757,-1425 1792,-945 3161,-2229 4092,-3824 946,-1595 1411,-3288 1411,-5080 0,-2032 -691,-4022 -2074,-5983 -1905,-2695 -5376,-5955 -10442,-9751 -5080,-3838 -8241,-6604 -9483,-8311 -2159,-2865 -3231,-5970 -3231,-9300 0,-2639 635,-5052 1905,-7225 1270,-2173 3062,-3880 5376,-5136 2314,-1256 4812,-1877 7521,-1877 2879,0 5574,706 8072,2131 2498,1411 5150,4022 7944,7817l-4967 3768c-2300,-3034 -4261,-5038 -5884,-5997 -1623,-974 -3387,-1454 -5292,-1454 -2469,0 -4487,748 -6053,2230 -1567,1496 -2357,3316 -2357,5503 0,1313 282,2597 833,3839 550,1241 1566,2582 3034,4050 790,762 3429,2794 7888,6067 5277,3895 8904,7352 10865,10372 1962,3034 2949,6082 2949,9144 0,4403 -1679,8241 -5023,11487 -3359,3259 -7437,4882 -12234,4882 -3698,0 -7056,-988 -10062,-2963 -3005,-1976 -5785,-5292 -8325,-9935zm106518 -39046l-4798 3683c-2638,-3443 -5813,-6053 -9525,-7831 -3697,-1778 -7761,-2667 -12206,-2667 -4840,0 -9327,1171 -13462,3499 -4134,2329 -7323,5461 -9595,9384 -2272,3923 -3415,8354 -3415,13251 0,7422 2540,13617 7620,18570 5080,4967 11486,7451 19233,7451 8509,0 15621,-3331 21350,-9991l4798 3641c-3034,3852 -6815,6844 -11345,8946 -4530,2103 -9596,3161 -15184,3161 -10640,0 -19036,-3542 -25174,-10626 -5151,-5969 -7733,-13194 -7733,-21646 0,-8890 3119,-16383 9356,-22451 6251,-6082 14069,-9116 23467,-9116 5672,0 10795,1115 15367,3344 4572,2244 8325,5377 11246,9398zm17787 -10371l6096 0 0 25485 30989 0 0 -25485 6096 0 0 60791 -6096 0 0 -29379 -30989 0 0 29379 -6096 0 0 -60791zm65301 0l6096 0 0 60791 -6096 0 0 -60791zm28371 5927l0 -5927 32089 0 -25499 54864 24229 0 0 5927 -33528 0 25598 -54864 -22889 0zm78522 -7451c9201,0 16906,3076 23100,9215 6195,6138 9300,13702 9300,22676 0,8904 -3091,16454 -9271,22649 -6195,6195 -13731,9299 -22635,9299 -9003,0 -16609,-3090 -22803,-9257 -6195,-6166 -9300,-13631 -9300,-22394 0,-5842 1411,-11247 4234,-16242 2822,-4982 6674,-8890 11557,-11713 4868,-2822 10146,-4233 15818,-4233zm268 5927c-4487,0 -8748,1171 -12784,3513 -4022,2343 -7169,5490 -9441,9455 -2257,3979 -3386,8396 -3386,13279 0,7210 2497,13306 7507,18274 5009,4981 11049,7464 18104,7464 4728,0 9088,-1143 13096,-3429 4021,-2286 7154,-5418 9398,-9384 2243,-3965 3372,-8368 3372,-13222 0,-4826 -1129,-9186 -3372,-13081 -2244,-3895 -5419,-7013 -9497,-9356 -4078,-2342 -8410,-3513 -12997,-3513zm48240 56388l8425 -60791 1256 0 24736 49869 24582 -49869 917 0 8749 60791 -5884 0 -6096 -43519 -21534 43519 -1594 0 -21746 -43858 -5828 43858 -5983 0zm151267 -54864l0 -5927 33274 0 0 5927 -13547 0 0 54864 -6181 0 0 -54864 -13546 0zm48931 -5927l12135 0c6760,0 11346,282 13745,833 3626,818 6561,2582 8819,5305 2272,2710 3401,6054 3401,10019 0,3302 -776,6209 -2343,8707 -1552,2512 -3781,4403 -6688,5687 -2893,1284 -6901,1933 -12009,1961l21887 28279 -7465 0 -21887 -28279 -3499 0 0 28279 -6096 0 0 -60791zm6096 5927l0 20659 10498 84c4079,0 7084,-381 9032,-1157 1947,-776 3471,-2004 4572,-3697 1086,-1693 1636,-3584 1636,-5687 0,-2032 -550,-3895 -1665,-5560 -1100,-1665 -2554,-2850 -4360,-3570 -1792,-719 -4784,-1072 -8961,-1072l-10752 0zm51055 -5927l6096 0 0 60791 -6096 0 0 -60791zm23334 0l7112 0 14535 23608 14590 -23608 7113 0 -18162 29365 19347 31426 -7112 0 -15791 -25654 -15875 25654 -7112 0 19431 -31426 -18076 -29365z"/>
  <polygon class="fil2" points="427919,64834 432502,56896 433272,55562 434786,55562 492834,55562 494347,55562 495118,56896 499701,64834 501986,68792 497417,68792 430203,68792 425633,68792 "/>
  <polygon class="fil3" points="485952,41021 490535,48959 492820,52917 488251,52917 439368,52917 434792,52917 437084,48948 441668,41010 442432,39687 443952,39687 483668,39687 485181,39687 "/>
  <polygon class="fil4" points="446250,33084 450833,25146 451603,23812 453117,23812 474503,23812 476016,23812 476787,25146 481370,33084 483655,37042 479086,37042 448534,37042 443964,37042 "/>
  <polygon class="fil5" points="455415,17198 461526,6614 463807,2663 466094,6625 472204,17209 474488,21167 469920,21167 457699,21167 453123,21167 "/>
 </g>
</svg>
